<svg width="14" height="17" viewBox="0 0 14 17" fill="none" xmlns="http://www.w3.org/2000/svg">
<path d="M7.18998 16.967C7.06677 17.0109 6.93219 17.0109 6.80898 16.967C-0.171021 14.498 -0.0620213 8.64901 0.0179787 4.37701C0.0259787 3.91801 0.0339787 3.48401 0.0339787 3.06501C0.032646 2.9087 0.0933959 2.75825 0.20289 2.6467C0.312384 2.53514 0.461673 2.47159 0.617979 2.47001C3.11198 2.47001 5.00998 1.73801 6.59298 0.16801C6.6463 0.114523 6.70966 0.0720851 6.77941 0.043129C6.84917 0.0141728 6.92395 -0.000732422 6.99948 -0.000732422C7.07501 -0.000732422 7.14979 0.0141728 7.21954 0.043129C7.2893 0.0720851 7.35265 0.114523 7.40598 0.16801C8.98898 1.73801 10.888 2.47001 13.383 2.47001C13.5391 2.47186 13.6881 2.53552 13.7974 2.64705C13.9067 2.75858 13.9673 2.90887 13.966 3.06501C13.966 3.48501 13.974 3.91801 13.983 4.37701C14.063 8.64801 14.172 14.498 7.19098 16.967H7.18998ZM12.817 4.40001C12.812 4.14201 12.807 3.89201 12.805 3.64801C10.467 3.54701 8.59898 2.82501 6.99998 1.40301C5.39998 2.82501 3.53298 3.54701 1.19698 3.64801L1.18398 4.40001C1.10398 8.69401 1.01398 13.555 6.99998 15.774C12.987 13.554 12.897 8.69401 12.816 4.40001H12.817ZM9.83298 6.43301C9.94257 6.54575 10.0039 6.69678 10.0039 6.85401C10.0039 7.01124 9.94257 7.16227 9.83298 7.27501L6.60598 10.567C6.55246 10.6223 6.48836 10.6663 6.41749 10.6963C6.34663 10.7264 6.27045 10.7419 6.19348 10.7419C6.11651 10.7419 6.04033 10.7264 5.96946 10.6963C5.8986 10.6663 5.8345 10.6223 5.78098 10.567L4.16698 8.92001C4.05715 8.80739 3.99568 8.65631 3.99568 8.49901C3.99568 8.3417 4.05715 8.19063 4.16698 8.07801C4.22057 8.02282 4.2847 7.97895 4.35555 7.94899C4.4264 7.91903 4.50255 7.9036 4.57948 7.9036C4.65641 7.9036 4.73255 7.91903 4.80341 7.94899C4.87426 7.97895 4.93839 8.02282 4.99198 8.07801L6.19298 9.30401L9.00798 6.43201C9.06157 6.37682 9.1257 6.33295 9.19655 6.30299C9.26741 6.27303 9.34355 6.2576 9.42048 6.2576C9.49741 6.2576 9.57355 6.27303 9.64441 6.30299C9.71526 6.33295 9.77939 6.37682 9.83298 6.43201V6.43301Z" fill="#787878"/>
</svg>
