<svg width="42" height="42" viewBox="0 0 42 42" fill="none" xmlns="http://www.w3.org/2000/svg">
<path d="M41.587 9.89229L34.7582 31.5964L34.9192 32.1083C35.0236 32.4367 35.0622 32.7827 35.0329 33.1263C35.0036 33.4699 34.9069 33.8042 34.7484 34.1099C34.4923 34.606 34.0967 34.9978 33.6098 35.2439L33.604 35.2655L32.0614 40.1677C31.8516 40.8306 31.3895 41.3828 30.7763 41.7033C30.1631 42.0238 29.4488 42.0866 28.7897 41.8779L20.8556 39.3474L12.9215 41.8779C12.2624 42.0866 11.5481 42.0238 10.9349 41.7033C10.3217 41.3828 9.85961 40.8306 9.64986 40.1677L0.122959 9.89294C0.0186924 9.56447 -0.0198456 9.21844 0.00957564 8.87487C0.0389969 8.53131 0.135793 8.19703 0.294363 7.89138C0.451176 7.58465 0.666896 7.31232 0.929017 7.09017C1.19114 6.86803 1.49444 6.70048 1.82135 6.59725L22.1219 0.123348C22.7809 -0.0857532 23.4953 -0.023222 24.1086 0.297234C24.7219 0.61769 25.184 1.16992 25.3936 1.83288L25.4437 1.99169C25.4496 1.993 25.4555 1.99366 25.4607 1.99563L39.8899 6.59791C40.2165 6.70113 40.5196 6.86853 40.7816 7.09044C41.0436 7.31234 41.2593 7.58435 41.4162 7.89072C41.7369 8.51416 41.7975 9.22422 41.587 9.89229ZM31.5726 35.9303L23.7336 38.43L29.3137 40.2097C29.5335 40.2798 29.7719 40.2591 29.9765 40.1523C30.1812 40.0455 30.3354 39.8613 30.4053 39.6401L31.5726 35.9303ZM33.2625 32.6373L23.7369 2.36182C23.6673 2.1407 23.5133 1.95644 23.3089 1.84952C23.1045 1.74259 22.8662 1.72174 22.6465 1.79154L2.34664 8.2661C2.12506 8.33632 1.94453 8.48922 1.83765 8.69725C1.78474 8.79916 1.75242 8.91061 1.74258 9.02517C1.73273 9.13973 1.74555 9.25512 1.78029 9.36466L11.3059 39.6394C11.4506 40.0995 11.94 40.3548 12.3969 40.2097L20.5695 37.6031C20.5877 37.5965 20.606 37.59 20.6249 37.5854L32.6968 33.7352C32.9184 33.6649 33.0989 33.512 33.2051 33.304C33.3127 33.0966 33.3329 32.8597 33.2625 32.6366V32.6373ZM31.6071 21.5814L34.8325 11.3308L27.6629 9.04441L31.6071 21.5814ZM39.8729 8.69594C39.8206 8.59393 39.7488 8.50336 39.6615 8.42947C39.5743 8.35557 39.4734 8.29983 39.3646 8.26544L26.0844 4.03L27.0268 7.02316C27.0841 7.02972 27.1415 7.04154 27.1982 7.05991L35.3565 9.66194C35.5742 9.73077 35.7762 9.84236 35.9508 9.99026C36.1254 10.1382 36.2692 10.3194 36.3738 10.5236C36.4796 10.7274 36.5443 10.9503 36.5639 11.1794C36.5836 11.4086 36.558 11.6393 36.4885 11.8584L32.5182 24.4768L33.8464 28.6991L39.9303 9.36335C40 9.14022 39.9798 8.90397 39.8729 8.69594ZM20.1648 15.3149C20.5396 15.5093 20.8724 15.7768 21.1439 16.1016C21.4154 16.4265 21.6203 16.8024 21.7465 17.2075C21.8804 17.6311 21.9198 18.0792 21.862 18.5199C21.8043 18.9605 21.6507 19.383 21.4122 19.757L19.3182 23.0521C19.1556 23.3068 18.9322 23.5165 18.6684 23.6618C18.4046 23.8072 18.1089 23.8836 17.8081 23.8842C17.5774 23.8842 17.3467 23.8396 17.1304 23.7503L13.5335 22.2711C13.1247 22.1035 12.7576 21.8472 12.4584 21.5204C12.1592 21.1936 11.9352 20.8044 11.8025 20.3805C11.674 19.9761 11.6264 19.5501 11.6626 19.1271C11.6987 18.7041 11.8178 18.2926 12.013 17.9163C12.2062 17.5388 12.4718 17.2037 12.7944 16.9303C13.117 16.6569 13.4903 16.4507 13.8926 16.3235C14.5885 16.1036 15.3379 16.1276 16.0185 16.3918C16.4237 15.781 17.0227 15.3266 17.7176 15.1029C18.1191 14.9737 18.5422 14.9259 18.9622 14.9623C19.3823 14.9987 19.791 15.1185 20.1648 15.3149ZM20.0898 17.7358C20.0318 17.5501 19.9379 17.3778 19.8134 17.2289C19.6889 17.08 19.5363 16.9574 19.3645 16.8682C19.1931 16.7781 19.0056 16.7231 18.813 16.7064C18.6204 16.6897 18.4263 16.7117 18.2422 16.7711C17.9996 16.8476 17.781 16.9866 17.6079 17.1742C17.4349 17.3617 17.3134 17.5915 17.2555 17.8408C17.2203 17.9873 17.1482 18.1223 17.0461 18.2325C16.9439 18.3428 16.8153 18.4246 16.6725 18.4702C16.5298 18.5157 16.3778 18.5234 16.2313 18.4924C16.0847 18.4615 15.9486 18.393 15.836 18.2936C15.6459 18.1235 15.4151 18.0062 15.1664 17.9533C14.9176 17.9004 14.6594 17.9136 14.4172 17.9917C14.2328 18.0503 14.0617 18.1451 13.9139 18.2707C13.7661 18.3963 13.6446 18.5502 13.5563 18.7234C13.4668 18.896 13.4122 19.0848 13.3956 19.2787C13.3791 19.4727 13.4009 19.6681 13.4598 19.8535C13.5739 20.2164 13.8411 20.5078 14.1917 20.6522L17.7879 22.1313C17.7999 22.1366 17.8134 22.1371 17.8257 22.1327C17.8379 22.129 17.8483 22.1211 17.8551 22.1103L19.9491 18.8147C20.1537 18.4931 20.2052 18.1007 20.0905 17.7371L20.0898 17.7358ZM28.7884 26.8623C28.858 27.0812 28.8837 27.3118 28.8641 27.5408C28.8445 27.7699 28.78 27.9927 28.6743 28.1964C28.5697 28.4008 28.4259 28.5822 28.2511 28.7303C28.0764 28.8783 27.8742 28.9899 27.6564 29.0587L13.8431 33.4654C13.4037 33.6047 12.9274 33.563 12.5185 33.3493C12.1096 33.1356 11.8016 32.7675 11.6617 32.3255L5.2227 11.8591C5.15308 11.64 5.12732 11.4093 5.1469 11.1802C5.16647 10.951 5.23101 10.7281 5.33675 10.5243C5.44139 10.3201 5.58518 10.1388 5.75979 9.99091C5.93441 9.84302 6.1364 9.73143 6.35409 9.6626L20.168 5.25654C20.6075 5.11688 21.0841 5.15846 21.4931 5.37216C21.9022 5.58586 22.2103 5.95423 22.35 6.39644L28.7884 26.8623ZM27.1317 27.3905L20.6927 6.92472L14.324 8.95516L6.87808 11.3301L13.3171 31.7959L27.1317 27.3905Z" fill="#3172B9"/>
</svg>
