<svg width="56" height="42" viewBox="0 0 56 42" fill="none" xmlns="http://www.w3.org/2000/svg">
<path d="M51.8469 13.3035C51.8469 14.658 51.6476 15.981 51.2634 17.2397H54.6117C55.3781 17.2397 56 17.8677 56 18.6414C56 19.4158 55.3781 20.0425 54.6117 20.0425H50.4456C50.314 20.0425 50.1871 20.0241 50.0666 19.99C49.4918 20.9831 48.7923 21.8974 47.9855 22.7102L29.2841 41.5892C29.1552 41.7194 29.0022 41.8228 28.8336 41.8933C28.665 41.9638 28.4843 42.0001 28.3018 42.0001C28.1193 42.0001 27.9386 41.9638 27.77 41.8933C27.6015 41.8228 27.4484 41.7194 27.3195 41.5892L8.61684 22.7102C7.94177 22.0295 7.34201 21.2769 6.82809 20.4658C6.71674 20.4947 6.60019 20.5104 6.47907 20.5104H1.38828C1.2058 20.5103 1.02514 20.4739 0.856609 20.4033C0.688083 20.3328 0.534992 20.2295 0.406079 20.0993C0.277165 19.9692 0.174953 19.8147 0.105278 19.6447C0.0356027 19.4747 -0.000170493 19.2926 6.10902e-07 19.1087C6.10902e-07 18.3343 0.621861 17.7069 1.38828 17.7069H5.50037C3.88419 13.0338 4.92279 7.6243 8.61684 3.8968C9.83682 2.65789 11.2888 1.67547 12.8885 1.00654C14.4881 0.337602 16.2037 -0.00453166 17.9356 -1.3421e-05C21.4558 -1.3421e-05 24.7663 1.38402 27.2551 3.8968L28.3015 4.95271L29.3479 3.89614C30.568 2.65728 32.0201 1.67493 33.6199 1.00611C35.2197 0.337283 36.9354 -0.0047045 38.6674 -1.3421e-05C40.3993 -0.00449534 42.1148 0.337655 43.7145 1.00659C45.3142 1.67552 46.7661 2.65792 47.9861 3.8968C49.2143 5.13001 50.1878 6.59625 50.8505 8.21081C51.5131 9.82538 51.8518 11.5563 51.8469 13.3035ZM46.0229 5.87802C45.0596 4.90018 43.9133 4.12483 42.6504 3.59694C41.3876 3.06904 40.0332 2.79912 38.666 2.80283C37.2991 2.7993 35.945 3.0693 34.6823 3.59719C33.4197 4.12507 32.2736 4.90034 31.3105 5.87802L29.2821 7.92552C29.1534 8.05574 29.0004 8.15907 28.832 8.22957C28.6635 8.30008 28.4829 8.33637 28.3005 8.33637C28.1181 8.33637 27.9375 8.30008 27.7691 8.22957C27.6006 8.15907 27.4476 8.05574 27.3189 7.92552L25.2912 5.87802C24.328 4.90032 23.1817 4.12505 21.919 3.59716C20.6562 3.06928 19.3021 2.79928 17.935 2.80283C16.568 2.79919 15.2139 3.06914 13.9512 3.59704C12.6886 4.12493 11.5425 4.90025 10.5794 5.87802C7.27544 9.21374 6.6627 14.2524 8.74186 18.2195H18.3862L21.8387 10.8143C21.9982 10.4731 22.3199 10.2598 22.7197 10.2788C22.9025 10.2876 23.0786 10.3508 23.2258 10.4603C23.3729 10.5699 23.4846 10.7209 23.5467 10.8944L28.6844 25.2571L32.9111 13.2352C32.9725 13.0598 33.0847 12.907 33.233 12.7963C33.3814 12.6857 33.5593 12.6224 33.7437 12.6145C33.9281 12.6065 34.1106 12.6544 34.2678 12.752C34.425 12.8495 34.5496 12.9922 34.6256 13.1617L36.6937 17.7522H48.0897C49.8869 13.8633 49.198 9.0838 46.0222 5.87802H46.0229ZM10.5801 20.7283L28.3015 38.6164L46.0229 20.7283C46.3793 20.3687 46.7094 19.9836 47.0107 19.5759H36.2932C35.9305 19.5759 35.4057 19.4073 35.2559 19.0732L33.8904 16.0414L29.5654 28.3428C29.4352 28.7142 29.0874 28.9636 28.6961 28.9642H28.6941C28.3034 28.9642 27.9564 28.7175 27.8235 28.3474L22.5647 13.6487L19.8123 19.5523C19.6599 19.8791 19.5284 20.0425 19.1696 20.0425H9.95823C10.1536 20.2788 10.3613 20.5071 10.5801 20.7283Z" fill="#3172B9"/>
</svg>
