<svg width="17" height="16" viewBox="0 0 17 16" fill="none" xmlns="http://www.w3.org/2000/svg">
<g clip-path="url(#clip0_48068_210)">
<path d="M3.85973 16V5.20483H0.215035V16H3.85973ZM2.03785 3.73005C3.30882 3.73005 4.09994 2.9011 4.09994 1.8652C4.07626 0.805936 3.30887 0 2.06197 0C0.815269 0 0 0.805952 0 1.8652C0 2.90115 0.790923 3.73005 2.01406 3.73005H2.03774H2.03785ZM5.87706 16H9.52175V9.97146C9.52175 9.64882 9.54543 9.32651 9.64168 9.09587C9.90516 8.45125 10.5049 7.7836 11.5117 7.7836C12.8305 7.7836 13.3582 8.77355 13.3582 10.2248V15.9999H17.0026V9.81008C17.0026 6.49422 15.2045 4.95139 12.8065 4.95139C10.8404 4.95139 9.9771 6.03334 9.49751 6.77026H9.52184V5.20461H5.87714C5.92497 6.21757 5.87714 15.9998 5.87714 15.9998L5.87706 16Z" fill="black"/>
</g>
<defs>
<clipPath id="clip0_48068_210">
<rect width="17" height="16" fill="white" transform="translate(0 0.000976562)"/>
</clipPath>
</defs>
</svg>
