<svg width="18" height="14" viewBox="0 0 18 14" fill="none" xmlns="http://www.w3.org/2000/svg">
<g clip-path="url(#clip0_48068_208)">
<path d="M17.719 1.6573C17.0672 1.93846 16.3672 2.12854 15.6312 2.21398C16.3824 1.77667 16.9578 1.08369 17.2295 0.258928C16.516 0.670957 15.7351 0.961025 14.9207 1.11653C14.258 0.429756 13.313 0.000976562 12.2675 0.000976562C10.2607 0.000976562 8.63311 1.58267 8.63311 3.53489C8.63311 3.8115 8.66516 4.08136 8.72676 4.34045C5.70575 4.19284 3.02744 2.78594 1.2347 0.648159C0.921659 1.17027 0.742478 1.77731 0.742478 2.42499C0.742478 3.65089 1.38427 4.73251 2.35946 5.3661C1.78217 5.3487 1.21754 5.19721 0.712779 4.92427V4.96893C0.712779 6.68131 1.96554 8.10914 3.6285 8.43387C3.32302 8.51525 3.00243 8.55776 2.67076 8.55776C2.43627 8.55776 2.20876 8.53619 1.98651 8.49555C2.44908 9.89907 3.7915 10.9207 5.38164 10.9496C4.13761 11.8977 2.57008 12.4628 0.867562 12.4628C0.574324 12.4628 0.284511 12.4458 0 12.4125C1.60887 13.4155 3.51914 14.001 5.57194 14.001C12.2576 14.001 15.914 8.61606 15.914 3.9462C15.914 3.79289 15.9105 3.64072 15.9029 3.48909C16.6153 2.98813 17.2303 2.36785 17.719 1.6573Z" fill="black"/>
</g>
<defs>
<clipPath id="clip0_48068_208">
<rect width="18" height="14" fill="white" transform="translate(0 0.000976562)"/>
</clipPath>
</defs>
</svg>
