<svg width="42" height="42" viewBox="0 0 42 42" fill="none" xmlns="http://www.w3.org/2000/svg">
<g clip-path="url(#clip0_48068_53)">
<path d="M31.1251 0.00276999C24.9762 -0.134685 19.8546 4.86079 19.7026 11.1443L19.626 14.3077C19.605 15.1706 20.2789 15.8922 21.1232 15.9113C21.9676 15.9297 22.6754 15.2393 22.6958 14.3764L22.773 11.213C22.883 6.66362 26.597 3.04078 31.0497 3.14006C35.5012 3.23997 39.0361 7.02444 38.9261 11.5738C38.8156 16.1226 35.1016 19.746 30.6495 19.6461L11.4259 19.2166C5.27709 19.0791 0.155431 24.0746 0.0034861 30.3581C-0.149077 36.6416 4.7249 41.8604 10.8744 41.9972C17.0232 42.1347 22.1449 37.1398 22.2968 30.8564L22.3728 27.728C22.3938 26.8644 21.7199 26.1434 20.8756 26.1243C20.0312 26.1052 19.3234 26.7963 19.3024 27.6593L19.2264 30.7876C19.1165 35.337 15.4024 38.9599 10.9497 38.8606C6.49821 38.7607 2.96333 34.9762 3.07327 30.4268C3.18383 25.8774 6.89784 22.2546 11.35 22.3539L30.5735 22.7834C36.7229 22.9209 41.844 17.926 41.9965 11.6425C42.1485 5.35843 37.2745 0.140225 31.1257 0.00340636L31.1251 0.00276999Z" fill="#3172B9"/>
</g>
<defs>
<clipPath id="clip0_48068_53">
<rect width="42" height="42" fill="white"/>
</clipPath>
</defs>
</svg>
